<svg width="42.004mm" height="65.621mm" version="1.1" viewBox="0 0 42.004 65.621" xmlns="http://www.w3.org/2000/svg">
<g transform="translate(-36.81 -16.175)">
<g transform="translate(2.6307 2.2074)" stroke-width=".26458">
<path d="m36.531 79.191c0-0.21828 0.17157-0.39688 0.38126-0.39688 0.62223 0 0.6709-0.35269 0.27655-2.0041-0.48661-2.0378-0.48879-2.7584-0.0083-2.7584 0.23887 0 0.44784 0.37642 0.55083 0.99219 0.24121 1.4422 0.34268 1.6314 0.36631 0.6831 0.01149-0.46104 0.09316-1.0266 0.18149-1.2568 0.1689-0.44015 0.89773-0.5881 0.89773-0.18223 0 0.5611-0.87555 4.4356-1.0976 4.8569-0.30255 0.57421-1.5483 0.62743-1.5483 0.06615zm14.609-2.3151 0.0754-2.712 0.7436-0.08526c1.1179-0.12818 1.5054 0.35637 1.5054 1.8828 0 1.4214-0.54881 2.3809-1.2155 2.1251-0.27044-0.10378-0.37202 0.0817-0.37202 0.6793 0 0.56266-0.12816 0.82206-0.40613 0.82206-0.34361 0-0.39452-0.4175-0.33073-2.712zm1.266-0.8599c0-0.65484-0.11906-1.1906-0.26458-1.1906s-0.26458 0.53578-0.26458 1.1906 0.11906 1.1906 0.26458 1.1906 0.26458-0.53578 0.26458-1.1906zm-3.64 1.8408c-1.1178-0.78295-0.56771-3.8251 0.69169-3.8251 0.69644 0 1.0962 0.53956 1.0962 1.4794 0 0.68008-0.12875 0.87676-0.66146 1.0105-0.3638 0.09131-0.66146 0.28281-0.66146 0.42556s0.29766 0.25954 0.66146 0.25954c0.41157 0 0.66146 0.14993 0.66146 0.39688 0 0.21828-0.10932 0.39688-0.24294 0.39688s-0.40241 0.06119-0.59731 0.13598c-0.1949 0.07479-0.62136-0.05102-0.94768-0.27959zm0.78252-2.8197c-0.24694-0.24694-0.3175-0.17639-0.3175 0.3175 0 0.49389 0.07056 0.56444 0.3175 0.3175 0.24694-0.24694 0.24694-0.38806 0-0.635zm4.8416 2.8635c-0.6004-0.43902-0.70269-2.7844-0.15046-3.4498 0.44771-0.53946 1.606-0.55552 1.606-0.02227 0 0.21828-0.16586 0.39688-0.36857 0.39688-0.82799 0-0.97377 2.0919-0.1606 2.3046 0.63197 0.16526 0.69825 0.74892 0.11065 0.9744-0.53385 0.20486-0.45768 0.21983-1.037-0.20378zm7.698 0.01834c-0.55659-0.40699-0.65535-2.89-0.13966-3.5114 0.44931-0.54138 1.505-0.46281 1.8254 0.13587 0.51496 0.96221 0.32502 1.6088-0.586 1.9948-0.90982 0.38548-0.92575 0.36287 0.59531 0.84503 0.32678 0.10359 0.30616 0.19257-0.11672 0.50378-0.63606 0.46811-0.97249 0.47492-1.5783 0.03194zm0.90126-2.58c0-0.29963-0.11906-0.4712-0.26458-0.38126-0.14552 0.08994-0.26458 0.33509-0.26458 0.54478s0.11906 0.38126 0.26458 0.38126c0.14552 0 0.26458-0.24515 0.26458-0.54478zm-23.283 0.67707c0-1.5875 0.07937-1.9844 0.39688-1.9844 0.26458 0 0.39688 0.26458 0.39688 0.79375 0 0.43656 0.11906 0.79375 0.26458 0.79375s0.26458-0.36592 0.26458-0.81315c0-0.6317 0.10332-0.79344 0.46302-0.7248 0.38121 0.07274 0.47676 0.42679 0.54076 2.0038 0.07216 1.7781 0.03896 1.9154-0.46302 1.9154-0.42445 0-0.54076-0.17072-0.54076-0.79375 0-0.43656-0.11906-0.79375-0.26458-0.79375s-0.26458 0.35719-0.26458 0.79375c0 0.52917-0.13229 0.79375-0.39688 0.79375-0.3175 0-0.39688-0.39688-0.39688-1.9844zm2.9104 0c0-1.5875 0.07937-1.9844 0.39688-1.9844 0.2679 0 0.40237 0.27945 0.4138 0.8599l0.01692 0.8599 0.42796-0.8599c0.73993-1.4868 1.1257-1.1014 1.1257 1.1245 0 1.5875-0.07937 1.9844-0.39688 1.9844-0.28014 0-0.40031-0.29183-0.40857-0.99219l-0.01169-0.99219-0.52379 0.99219c-0.28808 0.5457-0.64001 0.99219-0.78206 0.99219-0.145 0-0.25826-0.87022-0.25826-1.9844zm2.9104 0v-1.9844h0.76135c0.92774 0 1.4705 0.58932 1.2653 1.3739-0.08384 0.32062-0.02086 0.7415 0.13996 0.93529 0.21368 0.25747 0.21223 0.52831-0.0054 1.006-0.23464 0.51499-0.49543 0.65362-1.2295 0.65362h-0.93171zm1.3229 0.79375c0-0.21828-0.11906-0.39688-0.26458-0.39688s-0.26458 0.17859-0.26458 0.39688 0.11906 0.39688 0.26458 0.39688 0.26458-0.17859 0.26458-0.39688zm-0.14359-1.4369c0.08372-0.13547 0.03122-0.32109-0.11668-0.41249-0.1479-0.0914-0.2689 0.01943-0.2689 0.2463 0 0.46475 0.15876 0.53318 0.38558 0.16619zm9.6686 0.64318c0-1.5875 0.07937-1.9844 0.39688-1.9844 0.2798 0 0.4009 0.29269 0.41051 0.99219l0.01363 0.99219 0.41154-0.99219c0.69588-1.6777 1.1487-1.2866 1.1487 0.99219 0 1.5875-0.07937 1.9844-0.39688 1.9844-0.2777 0-0.40451-0.29793-0.42229-0.99219l-0.02541-0.99219-0.43761 0.99084c-0.7146 1.618-1.0991 1.2714-1.0991-0.99084zm3.4396 0.39688c0-1.2347-0.08819-1.5875-0.39688-1.5875-0.21828 0-0.39688-0.17859-0.39688-0.39688 0-0.29398 0.30868-0.39688 1.1906-0.39688 0.8413 0 1.1906 0.10814 1.1906 0.36857 0 0.20271-0.17859 0.4371-0.39688 0.52086-0.28659 0.10997-0.39688 0.55898-0.39688 1.6158 0 1.1245-0.09193 1.4635-0.39688 1.4635-0.30868 0-0.39688-0.35278-0.39688-1.5875zm5.0271 0c0-0.88194-0.11759-1.5875-0.26458-1.5875-0.14552 0-0.26458-0.17859-0.26458-0.39688 0-0.29398 0.30868-0.39688 1.1906-0.39688 0.88194 0 1.1906 0.10289 1.1906 0.39688 0 0.21828-0.17859 0.39688-0.39688 0.39688-0.30868 0-0.39688 0.35278-0.39688 1.5875 0 1.4111-0.0588 1.5875-0.52917 1.5875-0.47037 0-0.52917-0.17639-0.52917-1.5875zm-17.066-4.4184c-0.58208-0.05288-2.0446-0.27557-3.2499-0.49487s-2.3067-0.32758-2.4474-0.24064c-0.14068 0.08695-0.25579 0.04365-0.25579-0.09623 0-0.13987-0.3784-0.38622-0.8409-0.54745-1.6989-0.59224-3.3469-1.8788-3.9181-3.0587-0.58348-1.2053-0.53396-2.1127 0.17513-3.2087 0.88797-1.3726 5.9754-3.1811 9.7433-3.4635 2.979-0.22331 3.1483-0.31604 3.5204-1.928 0.3556-1.5405 0.42575-8.6838 0.09047-9.2123-0.15963-0.25163-0.8096 0.15902-2.4433 1.5437-3.8282 3.2446-6.838 4.7534-9.4778 4.7513-2.6835-0.0022-3.6971-1.6127-2.8123-4.4683 0.72526-2.3406 2.4927-6.7973 3.8514-9.7114l1.2455-2.6714-0.93935-0.50365c-1.4818-0.79448-4.0717-3.5589-5.0449-5.3848-0.78097-1.4652-0.87197-1.838-0.74622-3.0564 0.2853-2.7642 1.8696-4.6271 3.9371-4.6292 1.7199-0.0018 1.7838-0.09785 1.1947-1.798-0.28777-0.83063-0.57452-2.4627-0.63722-3.6269-0.10366-1.9247-0.04613-2.2486 0.63418-3.5716 2.1347-4.1512 5.2951-3.5056 12.243 2.5007l2.9143 2.5193 0.86524-0.75503c1.1965-1.0441 3.5529-2.4991 4.9055-3.0289 1.3065-0.5118 3.6538-0.5764 5.1084-0.14058 2.1324 0.63889 3.6836 2.5668 3.6836 4.5782 0 1.0347-0.95344 3.7608-1.8048 5.1601l-0.55498 0.91221 2.0398 0.96633c3.3214 1.5735 6.2909 4.106 7.2292 6.1653 0.63579 1.3954-0.29314 3.1961-2.141 4.1501-1.0094 0.52116-4.908 1.5378-6.6551 1.7355-1.2757 0.14433-1.5418 0.25658-1.435 0.60527 1.4439 4.7123 1.19 8.5871-0.68996 10.527-1.7398 1.7951-3.0784 1.3177-7.1654-2.5554l-2.7695-2.6245-0.58824 3.626c-0.32353 1.9943-0.75738 4.2981-0.96411 5.1194-0.52728 2.095-0.47298 2.8359 0.28831 3.9345 0.58691 0.84692 0.87162 0.99949 2.4474 1.3115 3.8015 0.75281 7.51 2.2707 9.2236 3.7753 2.2671 1.9906 1.955 3.8978-0.87159 5.3256-2.1263 1.0741-12.118 2.0027-16.888 1.5694zm12.817-33.425c2.3731-3.1524 2.6408-3.7194 2.1198-4.4895-0.21793-0.3221-0.91504 0.26714-3.7001 3.1276-1.9954 2.0494-3.4316 3.7381-3.4316 4.0349 0 0.43538 0.19236 0.51046 1.3077 0.51046h1.3077zm-10.039-0.39974c0-0.22452-0.51915-0.96866-1.1537-1.6536-1.4636-1.5801-1.7568-2.1537-1.7568-3.4379 0-1.4463 0.91022-2.6776 2.6823-3.6284 0.81362-0.43656 1.6869-0.96785 1.9407-1.1806 0.41016-0.34394 0.50409-0.32925 0.84606 0.13229 0.21796 0.29418 0.32623 0.81881 0.24981 1.2106-0.1031 0.52854 0.05439 0.87129 0.66865 1.4552 1.7658 1.6786 2.0075 3.3163 0.76108 5.1558-0.43392 0.64036-0.7911 1.3656-0.79375 1.6117-0.01234 1.1469 0.54258 0.81476 5.2056-3.1161 0.90122-0.7597 1.8983-1.5632 2.2157-1.7855l0.57717-0.40426-0.9772-1.7474c-0.7929-1.4178-1.1738-1.8261-2.0197-2.1645-1.0144-0.4059-1.5709-1.2965-1.1926-1.9087 0.19253-0.31152-0.55097-0.47834-3.6816-0.82607-3.8597-0.42871-3.5822-0.51894-5.5089 1.791-0.94493 1.1329-2.3217 2.936-3.0594 4.0069l-1.3413 1.9471 1.0327 1.4557c0.76532 1.0788 1.5002 1.7183 2.8381 2.4699 1.9791 1.1117 2.4669 1.2337 2.4669 0.6169z" fill="#fdf5a5"/>
<path d="m36.531 79.191c0-0.21828 0.17157-0.39688 0.38126-0.39688 0.62223 0 0.6709-0.35269 0.27655-2.0041-0.48661-2.0378-0.48879-2.7584-0.0083-2.7584 0.23887 0 0.44784 0.37642 0.55083 0.99219 0.24121 1.4422 0.34268 1.6314 0.36631 0.6831 0.01149-0.46104 0.09316-1.0266 0.18149-1.2568 0.1689-0.44015 0.89773-0.5881 0.89773-0.18223 0 0.5611-0.87555 4.4356-1.0976 4.8569-0.30255 0.57421-1.5483 0.62743-1.5483 0.06615zm14.609-2.3151 0.0754-2.712 0.7436-0.08526c1.1179-0.12818 1.5054 0.35637 1.5054 1.8828 0 1.4214-0.54881 2.3809-1.2155 2.1251-0.27044-0.10378-0.37202 0.0817-0.37202 0.6793 0 0.56266-0.12816 0.82206-0.40613 0.82206-0.34361 0-0.39452-0.4175-0.33073-2.712zm1.266-0.8599c0-0.65484-0.11906-1.1906-0.26458-1.1906s-0.26458 0.53578-0.26458 1.1906 0.11906 1.1906 0.26458 1.1906 0.26458-0.53578 0.26458-1.1906zm-3.64 1.8408c-1.1178-0.78295-0.56771-3.8251 0.69169-3.8251 0.69644 0 1.0962 0.53956 1.0962 1.4794 0 0.68008-0.12875 0.87676-0.66146 1.0105-0.3638 0.09131-0.66146 0.28281-0.66146 0.42556s0.29766 0.25954 0.66146 0.25954c0.41157 0 0.66146 0.14993 0.66146 0.39688 0 0.21828-0.10932 0.39688-0.24294 0.39688s-0.40241 0.06119-0.59731 0.13598c-0.1949 0.07479-0.62136-0.05102-0.94768-0.27959zm0.78252-2.8197c-0.24694-0.24694-0.3175-0.17639-0.3175 0.3175 0 0.49389 0.07056 0.56444 0.3175 0.3175 0.24694-0.24694 0.24694-0.38806 0-0.635zm4.8416 2.8635c-0.6004-0.43902-0.70269-2.7844-0.15046-3.4498 0.44771-0.53946 1.606-0.55552 1.606-0.02227 0 0.21828-0.16586 0.39688-0.36857 0.39688-0.82799 0-0.97377 2.0919-0.1606 2.3046 0.63197 0.16526 0.69825 0.74892 0.11065 0.9744-0.53385 0.20486-0.45768 0.21983-1.037-0.20378zm7.698 0.01834c-0.55659-0.40699-0.65535-2.89-0.13966-3.5114 0.44931-0.54138 1.505-0.46281 1.8254 0.13587 0.51496 0.96221 0.32502 1.6088-0.586 1.9948-0.90982 0.38548-0.92575 0.36287 0.59531 0.84503 0.32678 0.10359 0.30616 0.19257-0.11672 0.50378-0.63606 0.46811-0.97249 0.47492-1.5783 0.03194zm0.90126-2.58c0-0.29963-0.11906-0.4712-0.26458-0.38126-0.14552 0.08994-0.26458 0.33509-0.26458 0.54478s0.11906 0.38126 0.26458 0.38126c0.14552 0 0.26458-0.24515 0.26458-0.54478zm-23.283 0.67707c0-1.5875 0.07937-1.9844 0.39688-1.9844 0.26458 0 0.39688 0.26458 0.39688 0.79375 0 0.43656 0.11906 0.79375 0.26458 0.79375s0.26458-0.36592 0.26458-0.81315c0-0.6317 0.10332-0.79344 0.46302-0.7248 0.38121 0.07274 0.47676 0.42679 0.54076 2.0038 0.07216 1.7781 0.03896 1.9154-0.46302 1.9154-0.42445 0-0.54076-0.17072-0.54076-0.79375 0-0.43656-0.11906-0.79375-0.26458-0.79375s-0.26458 0.35719-0.26458 0.79375c0 0.52917-0.13229 0.79375-0.39688 0.79375-0.3175 0-0.39688-0.39688-0.39688-1.9844zm2.9104 0c0-1.5875 0.07937-1.9844 0.39688-1.9844 0.2679 0 0.40237 0.27945 0.4138 0.8599l0.01692 0.8599 0.42796-0.8599c0.73993-1.4868 1.1257-1.1014 1.1257 1.1245 0 1.5875-0.07937 1.9844-0.39688 1.9844-0.28014 0-0.40031-0.29183-0.40857-0.99219l-0.01169-0.99219-0.52379 0.99219c-0.28808 0.5457-0.64001 0.99219-0.78206 0.99219-0.145 0-0.25826-0.87022-0.25826-1.9844zm2.9104 0v-1.9844h0.76135c0.92774 0 1.4705 0.58932 1.2653 1.3739-0.08384 0.32062-0.02086 0.7415 0.13996 0.93529 0.21368 0.25747 0.21223 0.52831-0.0054 1.006-0.23464 0.51499-0.49543 0.65362-1.2295 0.65362h-0.93171zm1.3229 0.79375c0-0.21828-0.11906-0.39688-0.26458-0.39688s-0.26458 0.17859-0.26458 0.39688 0.11906 0.39688 0.26458 0.39688 0.26458-0.17859 0.26458-0.39688zm-0.14359-1.4369c0.08372-0.13547 0.03122-0.32109-0.11668-0.41249-0.1479-0.0914-0.2689 0.01943-0.2689 0.2463 0 0.46475 0.15876 0.53318 0.38558 0.16619zm9.6686 0.64318c0-1.5875 0.07937-1.9844 0.39688-1.9844 0.2798 0 0.4009 0.29269 0.41051 0.99219l0.01363 0.99219 0.41154-0.99219c0.69588-1.6777 1.1487-1.2866 1.1487 0.99219 0 1.5875-0.07937 1.9844-0.39688 1.9844-0.2777 0-0.40451-0.29793-0.42229-0.99219l-0.02541-0.99219-0.43761 0.99084c-0.7146 1.618-1.0991 1.2714-1.0991-0.99084zm3.4396 0.39688c0-1.2347-0.08819-1.5875-0.39688-1.5875-0.21828 0-0.39688-0.17859-0.39688-0.39688 0-0.29398 0.30868-0.39688 1.1906-0.39688 0.8413 0 1.1906 0.10814 1.1906 0.36857 0 0.20271-0.17859 0.4371-0.39688 0.52086-0.28659 0.10997-0.39688 0.55898-0.39688 1.6158 0 1.1245-0.09193 1.4635-0.39688 1.4635-0.30868 0-0.39688-0.35278-0.39688-1.5875zm5.0271 0c0-0.88194-0.11759-1.5875-0.26458-1.5875-0.14552 0-0.26458-0.17859-0.26458-0.39688 0-0.29398 0.30868-0.39688 1.1906-0.39688 0.88194 0 1.1906 0.10289 1.1906 0.39688 0 0.21828-0.17859 0.39688-0.39688 0.39688-0.30868 0-0.39688 0.35278-0.39688 1.5875 0 1.4111-0.0588 1.5875-0.52917 1.5875-0.47037 0-0.52917-0.17639-0.52917-1.5875zm-19.976-4.9137c-1.1642-0.22014-2.325-0.34686-2.5797-0.28159-0.25466 0.06526-0.46302 0.01632-0.46302-0.10877 0-0.12509-0.55899-0.4747-1.2422-0.77692-2.5859-1.1439-3.7849-2.537-3.7849-4.3979 0-1.4609 1.4442-2.7231 4.1278-3.6074 2.5356-0.83556 6.0573-1.5241 7.7953-1.5241 1.2476 0 1.2896-0.02606 1.5994-0.99219 0.38895-1.2131 0.63902-9.3906 0.3054-9.9868-0.20207-0.36108-0.59307-0.12981-2.4699 1.4609-3.8322 3.248-6.841 4.7567-9.4818 4.7546-2.6835-0.0022-3.6971-1.6127-2.8123-4.4683 0.72526-2.3406 2.4927-6.7973 3.8514-9.7114l1.2455-2.6714-0.93935-0.50365c-1.4818-0.79448-4.0717-3.5589-5.0449-5.3848-0.78773-1.4779-0.87264-1.8315-0.74257-3.0917 0.17955-1.7396 1.1052-3.4873 2.1691-4.0955 0.43656-0.24956 1.4121-0.49377 2.1679-0.54269l1.3742-0.08895 1.6685 3.3144c0.9177 1.8229 2.3225 4.301 3.1217 5.507 1.2952 1.9543 1.6583 2.3058 3.3399 3.2341 1.0377 0.5728 2.0208 1.0415 2.1848 1.0415 0.6159 0 0.26011-0.8575-0.85551-2.0619-1.4636-1.5801-1.7568-2.1537-1.7568-3.4379 0-1.4463 0.91022-2.6776 2.6823-3.6284 0.81362-0.43656 1.6869-0.96785 1.9407-1.1806 0.41016-0.34394 0.50409-0.32925 0.84606 0.13229 0.21796 0.29418 0.32623 0.81881 0.24981 1.2106-0.1031 0.52854 0.05439 0.87129 0.66865 1.4552 1.7658 1.6786 2.0075 3.3163 0.76108 5.1558-0.43392 0.64036-0.7911 1.3656-0.79375 1.6117-0.01234 1.1469 0.54258 0.81476 5.2056-3.1161 0.90122-0.7597 1.8983-1.5632 2.2157-1.7855l0.57717-0.40426-0.9772-1.7474c-0.7889-1.4107-1.1757-1.8268-2.0073-2.1596-1.0972-0.43901-1.4282-0.99526-1.1865-1.9938 0.11785-0.48691-0.21625-1.052-1.5768-2.6672-0.94949-1.1272-1.7263-2.1201-1.7263-2.2065 0-0.488 4.0621-3.24 5.76-3.9023 1.3079-0.51017 3.6558-0.57393 5.1084-0.13872 2.1324 0.63889 3.6836 2.5668 3.6836 4.5782 0 1.0347-0.95344 3.7608-1.8048 5.1601l-0.55498 0.91221 2.0398 0.96633c3.3214 1.5735 6.2909 4.106 7.2292 6.1653 0.63579 1.3954-0.29314 3.1961-2.141 4.1501-1.0544 0.5444-5.0131 1.5614-6.784 1.7429l-1.6316 0.16717-0.1737-0.79083c-0.1049-0.47759-0.43054-0.90786-0.82216-1.0863-0.6557-0.29876-0.85506-1.0492-0.40131-1.5107 0.26254-0.267-1.2203-4.3524-1.5798-4.3524-0.10918 0-1.6995 1.558-3.534 3.4622l-3.3355 3.4622 0.0105 1.8956 0.01051 1.8956 2.2392-2.4311 7.7653-0.37753 0.27775 1.0315c1.2486 4.6371 0.96618 7.7428-0.8825 9.703-0.94836 1.0056-2.0271 1.2234-3.1544 0.63706-0.74169-0.38581-3.0428-2.3075-5.0998-4.2589l-1.6114-1.5287-0.71486 4.1686c-0.39317 2.2927-0.84764 4.7704-1.0099 5.5059-0.16228 0.73555-0.22116 1.6285-0.13084 1.9844 0.25056 0.98717 1.6426 2.3668 2.3881 2.3668 0.98893 0 5.1362 1.2548 6.9883 2.1144 4.8236 2.2387 5.7196 5.1296 2.1151 6.8239-2.8416 1.3357-15.282 2.1038-19.907 1.2292zm0.10602-46.084c-5.6695-0.08991-5.1045 0.21717-5.9421-3.2294-0.85638-3.5235 0.11965-6.5692 2.4733-7.7179 1.0097-0.49278 1.2728-0.51965 2.3812-0.24322 2.1688 0.54084 5.2407 2.6308 8.7182 5.9315l1.6512 1.5672-1.9766 1.9448c-1.0871 1.0696-2.0683 1.9178-2.1803 1.8849-0.11205-0.03297-2.4182-0.09506-5.1248-0.13798z" fill="#a8d9e2"/>
<path d="m36.708 79.412c-0.3002-0.3002-0.19496-0.61736 0.20487-0.61736 0.67757 0 0.73566-0.52268 0.26953-2.4248-0.38592-1.5748-0.40011-1.9014-0.09099-2.0942 0.28371-0.17696 0.43407 0.08288 0.66727 1.1531 0.28391 1.3029 0.30273 1.3261 0.33073 0.40822 0.02614-0.8568 0.69829-2.0182 0.99582-1.7206 0.19191 0.19191-0.89826 4.6746-1.2357 5.0812-0.3431 0.41341-0.84775 0.50821-1.1415 0.21445zm14.376-2.4411c0-2.1428 0.07591-2.6467 0.41851-2.7781 1.1847-0.4546 1.9627 0.23031 1.9627 1.7278 0 1.318-0.39125 2.0804-1.0676 2.0804-0.40123 0-0.51986 0.18113-0.51986 0.79375 0 0.52917-0.13229 0.79375-0.39687 0.79375-0.32603 0-0.39688-0.46722-0.39688-2.6175zm1.3229-0.95435c0-0.65484-0.11906-1.1906-0.26458-1.1906s-0.26458 0.53578-0.26458 1.1906 0.11906 1.1906 0.26458 1.1906 0.26458-0.53578 0.26458-1.1906zm-12.645 0.08731c0.05015-1.2238 0.19512-1.9359 0.40847-2.0064 0.21672-0.07166 0.33073 0.17186 0.33073 0.70644 0 0.44869 0.11906 0.8158 0.26458 0.8158s0.26458-0.28492 0.26458-0.63315c0-0.34823 0.17859-0.70168 0.39688-0.78545 0.33095-0.127 0.39688 0.17597 0.39688 1.8238 0 1.5801-0.07952 1.9761-0.39688 1.9761-0.26458 0-0.39688-0.26458-0.39688-0.79375 0-0.43656-0.11906-0.79375-0.26458-0.79375s-0.26458 0.35719-0.26458 0.79375c0 0.53918-0.131 0.79375-0.40847 0.79375-0.33748 0-0.39496-0.32968-0.33073-1.8971zm2.9104-0.02117c0.04538-1.1198 0.18786-1.8857 0.34232-1.8402 0.14552 0.04293 0.24721 0.57871 0.22598 1.1906l-0.0386 1.1126 0.51163-1.1245c0.8027-1.7642 1.2854-1.491 1.2854 0.7276 0 1.4699-0.0819 1.8521-0.39688 1.8521-0.28961 0-0.39844-0.30391-0.40269-1.1245l-0.0058-1.1245-0.51042 1.1245c-0.76971 1.6957-1.1012 1.4354-1.0109-0.79375zm2.8559 0.05785c0-2.0544 0.20604-2.3187 1.4415-1.849 0.6393 0.24306 0.71804 0.38597 0.58346 1.0589-0.08557 0.42784-0.04042 0.84907 0.10034 0.93606 0.77963 0.48184-0.1913 1.7144-1.3505 1.7144h-0.77485zm1.3229 0.66976c0-0.2011-0.11906-0.43923-0.26458-0.52917-0.15065-0.09311-0.26458 0.13475-0.26458 0.52917s0.11393 0.62228 0.26458 0.52917c0.14552-0.08994 0.26458-0.32806 0.26458-0.52917zm0-1.5875c0-0.21828-0.11906-0.39688-0.26458-0.39688s-0.26458 0.17859-0.26458 0.39688 0.11906 0.39688 0.26458 0.39688 0.26458-0.17859 0.26458-0.39688zm1.6051 2.2818c-0.6761-1.2633-0.03811-3.4724 1.0028-3.4724 0.70241 0 1.0962 0.54181 1.0962 1.5081 0 0.75494-0.08953 0.87312-0.66146 0.87312-0.41158 0-0.66146 0.14993-0.66146 0.39688 0 0.25036 0.25233 0.39688 0.68351 0.39688 0.97286 0 0.6658 0.64166-0.35558 0.74306-0.6036 0.05992-0.89689-0.05845-1.1041-0.44563zm1.3053-2.1495c0-0.29104-0.11906-0.52917-0.26458-0.52917-0.14552 0-0.26458 0.04979-0.26458 0.11065 0 0.06086-0.07227 0.29898-0.1606 0.52917-0.10539 0.27464-0.01442 0.41852 0.26458 0.41852 0.24879 0 0.42518-0.21953 0.42518-0.52917zm4.4097 2.4694c-0.09701-0.09701-0.17639-0.80288-0.17639-1.5686 0-1.4695 0.49656-2.3203 1.267-2.1708 0.63606 0.12342 0.66901 0.65717 0.05056 0.81889-0.47483 0.12417-0.54415 0.31296-0.47384 1.2905 0.06476 0.9003 0.18132 1.1372 0.54538 1.1083 0.25466-0.02021 0.46302 0.12862 0.46302 0.33073 0 0.3774-1.3369 0.52986-1.6757 0.19109zm2.2594-1.7418c0.04528-1.1172 0.18822-1.8869 0.34232-1.8432 0.14552 0.04129 0.25225 0.57516 0.23717 1.1864l-0.02741 1.1113 0.54256-1.1202c0.82686-1.7072 1.2321-1.4665 1.2321 0.73186 0 1.4699-0.0819 1.8521-0.39688 1.8521-0.28961 0-0.39845-0.30391-0.40269-1.1245l-0.0058-1.1245-0.51042 1.1245c-0.76972 1.6957-1.1012 1.4354-1.0109-0.79375zm3.385 0.33073c0-1.2719-0.08329-1.5875-0.41892-1.5875-0.93303 0-0.12229-0.66729 0.90251-0.74282 0.8578-0.06322 1.1039 0.0105 1.1039 0.33073 0 0.22665-0.17859 0.41209-0.39688 0.41209-0.30868 0-0.39688 0.35278-0.39688 1.5875s-0.08819 1.5875-0.39688 1.5875c-0.30868 0-0.39688-0.35278-0.39688-1.5875zm2.0127 1.169c-0.31715-0.82647-0.16332-2.716 0.25518-3.1345 0.61592-0.61592 1.4122-0.51354 1.6901 0.21729 0.36565 0.96173 0.05906 1.7482-0.68152 1.7482-0.38414 0-0.6306 0.15511-0.6306 0.39688 0 0.24694 0.24988 0.39688 0.66146 0.39688 0.41158 0 0.66146 0.14993 0.66146 0.39688 0 0.56212-1.7394 0.54287-1.9561-0.02164zm1.1623-2.2429c0-0.29963-0.11906-0.4712-0.26458-0.38126-0.14552 0.08994-0.26458 0.33509-0.26458 0.54478s0.11906 0.38126 0.26458 0.38126c0.14552 0 0.26458-0.24515 0.26458-0.54478zm2.1167 1.0739c0-1.2347-0.08819-1.5875-0.39688-1.5875-0.21828 0-0.39688-0.17859-0.39688-0.39688 0-0.28564 0.29224-0.39688 1.0427-0.39688 1.0902 0 1.6701 0.41853 0.95843 0.69163-0.31039 0.11911-0.41364 0.54796-0.41364 1.7179 0 1.2096-0.08899 1.5592-0.39687 1.5592-0.30868 0-0.39688-0.35278-0.39688-1.5875zm-20.637-4.9782c-4.9847-0.90358-7.6729-2.8307-7.6729-5.5007 0-1.4609 1.4442-2.7231 4.1278-3.6074 2.5382-0.83643 6.0578-1.5241 7.8003-1.5241h1.2863l0.45968-1.5214c0.36234-1.1992 0.45162-2.4095 0.42162-5.7153-0.02094-2.3067-0.09787-4.2537-0.17097-4.3268-0.0731-0.0731-1.1227 0.69311-2.3325 1.7027-4.4392 3.7046-6.7906 4.9274-9.5203 4.9509-1.4955 0.01286-1.8645-0.07876-2.4205-0.60105-0.36085-0.33892-0.71542-0.92659-0.78794-1.306-0.25561-1.3371 1.4321-6.3348 3.9284-11.633l1.4002-2.9717 1.0037 0.41938c0.68683 0.28698 1.0344 0.3272 1.101 0.12742 0.16565-0.49695 1.2919-0.32157 1.679 0.26145 0.35303 0.5317 1.8874 0.99573 3.3812 1.0226l0.64143 0.01152-0.64143-0.68867c-0.5652-0.60683-4.3578-3.645-5.1846-4.1533-0.19721-0.12124-0.61289 0.33933-1.1439 1.2674-0.45876 0.80183-0.89322 1.4579-0.96546 1.4579-0.38136 0-2.5124-1.7039-3.6835-2.9452-2.0962-2.2219-2.8904-3.7663-2.8658-5.5731 0.04114-3.0282 1.7583-4.9755 4.3875-4.9755h1.2482l1.0253 2.1828c0.56391 1.2005 1.5249 3.0032 2.1355 4.0059 1.0423 1.7115 1.0858 1.8604 0.71068 2.4328-0.39456 0.60217-0.36028 0.6331 2.744 2.4764 1.729 1.0267 3.3348 1.8666 3.5684 1.8666 0.77886 0 0.43822-0.93504-0.77411-2.1248-1.3399-1.315-1.8674-2.6497-1.6033-4.057 0.20734-1.1052 1.4624-2.4591 2.7943-3.0143 0.51372-0.21414 1.2614-0.62188 1.6614-0.90609l0.72737-0.51675 0.24748 0.65091c0.13611 0.358 0.18149 0.90323 0.10085 1.2116-0.10366 0.39639 0.05096 0.71613 0.52761 1.0911 0.37083 0.2917 0.93548 0.95306 1.2548 1.4697 0.72065 1.166 0.59084 2.6517-0.33993 3.8905-0.88437 1.177-1.0287 1.6846-0.58396 2.0537 0.29793 0.24726 0.48147 0.23704 0.84065-0.0468 0.25273-0.19972 1.8559-1.5176 3.5626-2.9286 3.6358-3.0058 4.1231-3.3145 4.3398-2.7498 0.10106 0.26336-1.0298 1.6016-3.3736 3.9921-1.9391 1.9778-3.6417 3.7989-3.7837 4.047-0.14195 0.24807-0.26272 1.2654-0.26839 2.2606l-0.01031 1.8096 2.4043-2.6113 7.7536-0.37695 0.27775 1.0315c1.2486 4.6371 0.96618 7.7428-0.8825 9.703-0.94836 1.0056-2.0271 1.2234-3.1544 0.63706-0.74379-0.3869-3.0448-2.3094-5.1147-4.2732l-1.6264-1.5431-0.44045 2.5954c-0.24225 1.4275-0.67125 3.7306-0.95333 5.118-0.28208 1.3874-0.51288 2.8518-0.51288 3.2543 0 1.4951 1.3112 3.0867 2.5428 3.0867 0.92632 0 5.1254 1.284 6.9146 2.1144 4.8236 2.2387 5.7196 5.1296 2.1151 6.8239-2.958 1.3904-15.188 2.092-20.304 1.1647zm20.875-30.704c-0.1452-0.41651-0.55572-0.8902-0.91228-1.0527-0.68348-0.31142-0.85108-1.0564-0.35031-1.5572 0.22091-0.22091 0.14488-0.66735-0.29399-1.7262l-0.59196-1.4282 1.776-3.2048c2.034-3.6704 1.5698-3.5128 5.0163-1.7028 2.1409 1.1243 5.1722 3.8536 5.8377 5.2561 0.37759 0.7957 0.40371 1.1267 0.15456 1.9583-0.55849 1.8641-2.5447 2.8654-7.6041 3.8334-2.6545 0.5079-2.7269 0.49893-3.0319-0.37593zm-7.2618-12.851c-0.31778-0.485-0.35334-0.77159-0.14422-1.1623 0.30704-0.57371 0.15182-0.82818-2.1576-3.5372l-1.2845-1.5068 1.5349-1.214c3.338-2.6401 6.2998-3.5083 9.1456-2.681 2.834 0.82387 4.2167 2.9719 3.6263 5.6335-0.32781 1.4777-1.8182 4.847-2.144 4.847-0.12178 0-1.2486-0.29766-2.504-0.66146-2.6136-0.7574-3.3281-0.82567-3.1259-0.2987 0.22077 0.57532-0.64027 1.2247-1.6238 1.2247-0.66253 0-1.0127-0.1704-1.3228-0.64372zm-13.11-2.4646c-5.6695-0.08991-5.1045 0.21717-5.9421-3.2294-0.85638-3.5235 0.11965-6.5692 2.4733-7.7179 1.0097-0.49278 1.2728-0.51965 2.3812-0.24322 2.1688 0.54084 5.2407 2.6308 8.7182 5.9315l1.6512 1.5672-1.9766 1.9448c-1.0871 1.0696-2.0683 1.9178-2.1803 1.8849-0.11205-0.03297-2.4182-0.09506-5.1248-0.13798z" fill="#6ec3cf"/>
<path d="m36.708 79.412c-0.33544-0.33544-0.17434-0.61736 0.35278-0.61736 0.63167 0 0.64937-0.35017 0.127-2.5135-0.47545-1.9691-0.47554-1.9844-0.01092-1.9844 0.25101 0 0.44553 0.42807 0.57111 1.2568 0.20108 1.327 0.23017 1.3114 0.49376-0.26458 0.10692-0.63926 0.30919-0.99219 0.56866-0.99219 0.25964 0 0.35376 0.1645 0.26493 0.46302-0.07578 0.25466-0.3252 1.2882-0.55428 2.2968s-0.54686 1.9908-0.70619 2.1828c-0.31259 0.37664-0.82322 0.45631-1.1069 0.17268zm14.376-2.4411c0-2.1428 0.07591-2.6467 0.41851-2.7781 1.1306-0.43387 1.9627 0.22786 1.9627 1.5609 0 1.3285-0.43002 2.2473-1.0518 2.2473-0.41885 0-0.53572 0.17315-0.53572 0.79375 0 0.52917-0.13229 0.79375-0.39687 0.79375-0.32603 0-0.39688-0.46722-0.39688-2.6175zm1.4372-0.44768c0.19328-0.77011-0.02343-1.6973-0.39671-1.6973-0.13571 0-0.24675 0.53578-0.24675 1.1906 0 1.3013 0.37076 1.5932 0.64346 0.50667zm-12.814-0.37437c0-1.4699 0.08189-1.8521 0.39688-1.8521 0.24694 0 0.39688 0.24988 0.39688 0.66146 0 0.3638 0.11906 0.66146 0.26458 0.66146s0.26458-0.29766 0.26458-0.66146c0-0.41158 0.14993-0.66146 0.39688-0.66146 0.31498 0 0.39688 0.38218 0.39688 1.8521 0 1.4699-0.08189 1.8521-0.39688 1.8521-0.26458 0-0.39688-0.26458-0.39688-0.79375 0-0.43656-0.11906-0.79375-0.26458-0.79375s-0.26458 0.35719-0.26458 0.79375c0 0.52917-0.13229 0.79375-0.39688 0.79375-0.31498 0-0.39688-0.38218-0.39688-1.8521zm2.9104 0c0-1.0583 0.11339-1.8521 0.26458-1.8521 0.14552 0 0.27197 0.50602 0.281 1.1245l0.01642 1.1245 0.56488-1.1245c0.85652-1.705 1.2544-1.4742 1.2544 0.7276 0 1.4699-0.0819 1.8521-0.39688 1.8521-0.28759 0-0.40202-0.30964-0.41556-1.1245l-0.01869-1.1245-0.49963 1.1245c-0.72784 1.6381-1.0505 1.4146-1.0505-0.7276zm2.9104 0v-1.8521h0.93434c1.0277 0 1.4567 0.55828 0.99583 1.2962-0.19331 0.30954-0.17017 0.5256 0.08148 0.76067 0.365 0.34097 0.22045 1.1072-0.27256 1.4448-0.15614 0.10691-0.6113 0.19621-1.0115 0.19844-0.72484 4e-3 -0.7276-3e-3 -0.7276-1.848zm1.3229 0.66146c0-0.2011-0.11906-0.43923-0.26458-0.52917-0.15065-0.09311-0.26458 0.13475-0.26458 0.52917s0.11393 0.62228 0.26458 0.52917c0.14552-0.08994 0.26458-0.32806 0.26458-0.52917zm0-1.6031c0-0.20969-0.11906-0.38126-0.26458-0.38126s-0.26458 0.24515-0.26458 0.54478 0.11906 0.4712 0.26458 0.38126c0.14552-0.08994 0.26458-0.33509 0.26458-0.54478zm1.5873 2.1318c-0.51563-1.3562-0.13577-2.8795 0.79146-3.1738 0.77962-0.24744 1.3254 0.30309 1.3254 1.337 0 0.7389-0.10485 0.88918-0.66968 0.95979-0.87442 0.10932-0.86365 0.58876 0.01569 0.69812 0.93772 0.11662 0.67827 0.68903-0.35874 0.79144-0.69995 0.06912-0.88369-0.03281-1.1041-0.61254zm1.3231-1.9839c0-0.29104-0.11906-0.52917-0.26458-0.52917-0.14552 0-0.26458 0.04979-0.26458 0.11065 0 0.06086-0.07227 0.29898-0.1606 0.52917-0.10539 0.27464-0.01442 0.41852 0.26458 0.41852 0.24879 0 0.42518-0.21953 0.42518-0.52917zm4.3939 2.2273c-0.57689-1.5033 0.11477-3.6897 1.1064-3.4973 0.6284 0.12194 0.6722 0.65633 0.06678 0.81465-0.78292 0.20474-0.79197 2.2911-0.01082 2.4953 0.79272 0.2073 0.63729 0.60583-0.23628 0.60583-0.45391 0-0.83081-0.17034-0.92604-0.41852zm2.2207-1.4336c0-1.0583 0.11339-1.8521 0.26458-1.8521 0.14552 0 0.27197 0.50602 0.281 1.1245l0.01642 1.1245 0.56488-1.1245c0.85652-1.705 1.2544-1.4742 1.2544 0.7276 0 1.4699-0.0819 1.8521-0.39688 1.8521-0.28759 0-0.40202-0.30964-0.41556-1.1245l-0.01869-1.1245-0.49963 1.1245c-0.72784 1.6381-1.0505 1.4146-1.0505-0.7276zm3.4396 0.26458c0-1.2347-0.08819-1.5875-0.39688-1.5875-0.21828 0-0.39688-0.11906-0.39688-0.26458 0-0.14552 0.53578-0.26458 1.1906-0.26458s1.1906 0.11906 1.1906 0.26458c0 0.14552-0.17859 0.26458-0.39688 0.26458-0.30868 0-0.39688 0.35278-0.39688 1.5875s-0.08819 1.5875-0.39688 1.5875c-0.30868 0-0.39688-0.35278-0.39688-1.5875zm2.1696 1.27c-0.52644-0.52644-0.39683-2.7037 0.19271-3.2372 0.84497-0.76469 1.6065-0.32541 1.6065 0.92671 0 0.93348-0.06804 1.0405-0.66146 1.0405-0.41158 0-0.66146 0.14993-0.66146 0.39688 0 0.24694 0.24988 0.39688 0.66146 0.39688 0.41158 0 0.66146 0.14993 0.66146 0.39688 0 0.48599-1.3337 0.54483-1.7992 0.07937zm1.1377-2.3283c0-0.19403-0.14883-0.40239-0.33073-0.46302-0.19674-0.06558-0.33073 0.122-0.33073 0.46302 0 0.34102 0.13399 0.5286 0.33073 0.46302 0.1819-0.06063 0.33073-0.26899 0.33073-0.46302zm1.9844 1.0583c0-1.2347-0.08819-1.5875-0.39688-1.5875-0.21828 0-0.39688-0.11906-0.39688-0.26458 0-0.14552 0.47625-0.26458 1.0583-0.26458s1.0583 0.11906 1.0583 0.26458c0 0.14552-0.11906 0.26458-0.26458 0.26458-0.14699 0-0.26458 0.70556-0.26458 1.5875 0 1.2347-0.08819 1.5875-0.39687 1.5875-0.30868 0-0.39688-0.35278-0.39688-1.5875zm-20.637-4.9782c-4.9847-0.90358-7.6729-2.8307-7.6729-5.5007 0-1.4609 1.4442-2.7231 4.1278-3.6074 2.5197-0.8303 6.0546-1.5241 7.7652-1.5241 1.0998 0 1.2903-0.08567 1.5738-0.70805 0.75445-1.6558 0.88922-4.8161 0.45488-10.666-0.5486-7.3893-0.64008-7.599-4.7166-10.814-1.5938-1.257-3.0402-2.3188-3.2142-2.3596-0.17407-0.04079-0.64089 0.58726-1.0374 1.3957l-0.72088 1.4698-0.85953-0.44006c-1.3001-0.66563-4.4796-4.0387-5.2086-5.5257-0.82965-1.6923-0.82329-3.395 0.01894-5.0747 0.81827-1.6319 1.7236-2.2612 3.4593-2.4044l1.4-0.11555 1.1906 2.4416c0.65484 1.3429 1.6239 3.1652 2.1535 4.0495 0.90306 1.5081 0.93781 1.6462 0.55947 2.2236-0.22186 0.33861-0.35749 0.65154-0.3014 0.69541 0.59923 0.46866 6.3111 3.5886 6.6891 3.6537 0.94869 0.16344 0.71333-0.52764-0.73094-2.1463-2.6723-2.9949-2.1966-5.3239 1.4667-7.1806 0.82614-0.41872 1.5852-0.89575 1.6867-1.0601 0.28179-0.45595 0.63884 0.26311 0.64361 1.2962 0.0029 0.63853 0.21128 1.0513 0.7662 1.5183 0.86692 0.72947 1.6191 2.1527 1.6191 3.0635 0 0.33894-0.41721 1.2922-0.92714 2.1183-0.89406 1.4485-0.99988 2.3448-0.27685 2.3448 0.17979 0 1.8175-1.2372 3.6393-2.7492 3.2779-2.7206 4.1434-3.3362 4.691-3.3362 0.46657 0 0.31737 0.75619-0.20428 1.0354-0.26745 0.14313-1.9638 1.8311-3.7696 3.7511l-3.2833 3.4908-0.001482 3.9417 2.4043-2.612 7.7536-0.37695 0.27776 1.0315c1.2486 4.6371 0.96618 7.7428-0.8825 9.703-0.94836 1.0056-2.0271 1.2234-3.1544 0.63706-0.7476-0.38888-3.0484-2.3127-5.142-4.2994-0.9095-0.86309-1.6538-1.5206-1.6539-1.4612-1.55e-4 0.05945-0.37628 2.1917-0.83582 4.7383-1.2475 6.9131-1.2512 7.1213-0.14688 8.2922 0.5818 0.61689 1.1551 0.96825 1.5799 0.96825 1.0059 0 5.1396 1.2472 7.0083 2.1144 4.8236 2.2387 5.7196 5.1296 2.1151 6.8239-2.958 1.3904-15.188 2.092-20.304 1.1647zm-1.2062-30.328c-0.41023-0.30462-0.45491-0.47768-0.22199-0.8599 0.45248-0.7425 1.3873-0.7616 1.6701-0.03411 0.17787 0.45757 0.13088 0.69816-0.1845 0.94466-0.53557 0.4186-0.6372 0.41452-1.2636-0.05065zm22.109-0.54365c-0.17471-0.52938-0.38098-0.89919-0.45837-0.8218-0.07739 0.07739-0.36318 0.02165-0.63509-0.12387-0.5602-0.29981-0.64869-1.0442-0.17987-1.513 0.24296-0.24296 0.17758-0.64489-0.28739-1.7667l-0.6019-1.4522 0.91078-1.5274c0.50093-0.84005 1.3065-2.2605 1.7903-3.1566l0.87947-1.6292 1.4737 0.64447c3.2073 1.4026 6.7553 4.3536 7.5654 6.2925 0.67333 1.6115-0.20486 3.2195-2.2354 4.093-1.2875 0.55385-4.6112 1.4094-6.8062 1.752-1.0791 0.16843-1.1032 0.15499-1.4154-0.79118zm-7.0912-12.357c-0.35102-0.35102-0.41845-1.5013-0.11501-1.9619 0.70937-1.0768 2.7079-0.40539 2.7079 0.90971 0 0.95533-0.44026 1.3697-1.4552 1.3697-0.45111 0-0.96308-0.14288-1.1377-0.3175zm-13.308-2.7908c-5.6695-0.08991-5.1045 0.21717-5.9421-3.2294-0.85638-3.5235 0.11965-6.5692 2.4733-7.7179 1.0097-0.49278 1.2728-0.51965 2.3812-0.24322 2.1688 0.54084 5.2407 2.6308 8.7182 5.9315l1.6512 1.5672-1.9766 1.9448c-1.0871 1.0696-2.0683 1.9178-2.1803 1.8849-0.11205-0.03297-2.4182-0.09506-5.1248-0.13798z" fill="#fad203"/>
<path d="m36.708 79.412c-0.33544-0.33544-0.17434-0.61736 0.35278-0.61736 0.63167 0 0.64937-0.35017 0.127-2.5135-0.47545-1.9691-0.47554-1.9844-0.01092-1.9844 0.25101 0 0.44553 0.42807 0.57111 1.2568 0.20108 1.327 0.23017 1.3114 0.49376-0.26458 0.10692-0.63926 0.30919-0.99219 0.56866-0.99219 0.25964 0 0.35376 0.1645 0.26493 0.46302-0.07578 0.25466-0.3252 1.2882-0.55428 2.2968s-0.54686 1.9908-0.70619 2.1828c-0.31259 0.37664-0.82322 0.45631-1.1069 0.17268zm14.376-2.4411c0-2.1428 0.07591-2.6467 0.41851-2.7781 1.1306-0.43387 1.9627 0.22786 1.9627 1.5609 0 1.3285-0.43002 2.2473-1.0518 2.2473-0.41885 0-0.53572 0.17315-0.53572 0.79375 0 0.52917-0.13229 0.79375-0.39687 0.79375-0.32603 0-0.39688-0.46722-0.39688-2.6175zm1.4372-0.44768c0.19328-0.77011-0.02343-1.6973-0.39671-1.6973-0.13571 0-0.24675 0.53578-0.24675 1.1906 0 1.3013 0.37076 1.5932 0.64346 0.50667zm-12.814-0.37437c0-1.4699 0.08189-1.8521 0.39688-1.8521 0.24694 0 0.39688 0.24988 0.39688 0.66146 0 0.3638 0.11906 0.66146 0.26458 0.66146s0.26458-0.29766 0.26458-0.66146c0-0.41158 0.14993-0.66146 0.39688-0.66146 0.31498 0 0.39688 0.38218 0.39688 1.8521 0 1.4699-0.08189 1.8521-0.39688 1.8521-0.26458 0-0.39688-0.26458-0.39688-0.79375 0-0.43656-0.11906-0.79375-0.26458-0.79375s-0.26458 0.35719-0.26458 0.79375c0 0.52917-0.13229 0.79375-0.39688 0.79375-0.31498 0-0.39688-0.38218-0.39688-1.8521zm2.9104 0c0-1.0583 0.11339-1.8521 0.26458-1.8521 0.14552 0 0.27197 0.50602 0.281 1.1245l0.01642 1.1245 0.56488-1.1245c0.85652-1.705 1.2544-1.4742 1.2544 0.7276 0 1.4699-0.0819 1.8521-0.39688 1.8521-0.28759 0-0.40202-0.30964-0.41556-1.1245l-0.01869-1.1245-0.49963 1.1245c-0.72784 1.6381-1.0505 1.4146-1.0505-0.7276zm2.9104 0v-1.8521h0.93434c1.0277 0 1.4567 0.55828 0.99583 1.2962-0.19331 0.30954-0.17017 0.5256 0.08148 0.76067 0.365 0.34097 0.22045 1.1072-0.27256 1.4448-0.15614 0.10691-0.6113 0.19621-1.0115 0.19844-0.72484 4e-3 -0.7276-3e-3 -0.7276-1.848zm1.3229 0.66146c0-0.2011-0.11906-0.43923-0.26458-0.52917-0.15065-0.09311-0.26458 0.13475-0.26458 0.52917s0.11393 0.62228 0.26458 0.52917c0.14552-0.08994 0.26458-0.32806 0.26458-0.52917zm0-1.6031c0-0.20969-0.11906-0.38126-0.26458-0.38126s-0.26458 0.24515-0.26458 0.54478 0.11906 0.4712 0.26458 0.38126c0.14552-0.08994 0.26458-0.33509 0.26458-0.54478zm1.5873 2.1318c-0.51563-1.3562-0.13577-2.8795 0.79146-3.1738 0.77962-0.24744 1.3254 0.30309 1.3254 1.337 0 0.7389-0.10485 0.88918-0.66968 0.95979-0.87442 0.10932-0.86365 0.58876 0.01569 0.69812 0.93772 0.11662 0.67827 0.68903-0.35874 0.79144-0.69995 0.06912-0.88369-0.03281-1.1041-0.61254zm1.3231-1.9839c0-0.29104-0.11906-0.52917-0.26458-0.52917-0.14552 0-0.26458 0.04979-0.26458 0.11065 0 0.06086-0.07227 0.29898-0.1606 0.52917-0.10539 0.27464-0.01442 0.41852 0.26458 0.41852 0.24879 0 0.42518-0.21953 0.42518-0.52917zm4.3939 2.2273c-0.57689-1.5033 0.11477-3.6897 1.1064-3.4973 0.6284 0.12194 0.6722 0.65633 0.06678 0.81465-0.78292 0.20474-0.79197 2.2911-0.01082 2.4953 0.79272 0.2073 0.63729 0.60583-0.23628 0.60583-0.45391 0-0.83081-0.17034-0.92604-0.41852zm2.2207-1.4336c0-1.0583 0.11339-1.8521 0.26458-1.8521 0.14552 0 0.27197 0.50602 0.281 1.1245l0.01642 1.1245 0.56488-1.1245c0.85652-1.705 1.2544-1.4742 1.2544 0.7276 0 1.4699-0.0819 1.8521-0.39688 1.8521-0.28759 0-0.40202-0.30964-0.41556-1.1245l-0.01869-1.1245-0.49963 1.1245c-0.72784 1.6381-1.0505 1.4146-1.0505-0.7276zm3.4396 0.26458c0-1.2347-0.08819-1.5875-0.39688-1.5875-0.21828 0-0.39688-0.11906-0.39688-0.26458 0-0.14552 0.53578-0.26458 1.1906-0.26458s1.1906 0.11906 1.1906 0.26458c0 0.14552-0.17859 0.26458-0.39688 0.26458-0.30868 0-0.39688 0.35278-0.39688 1.5875s-0.08819 1.5875-0.39688 1.5875c-0.30868 0-0.39688-0.35278-0.39688-1.5875zm2.1696 1.27c-0.52644-0.52644-0.39683-2.7037 0.19271-3.2372 0.84497-0.76469 1.6065-0.32541 1.6065 0.92671 0 0.93348-0.06804 1.0405-0.66146 1.0405-0.41158 0-0.66146 0.14993-0.66146 0.39688 0 0.24694 0.24988 0.39688 0.66146 0.39688 0.41158 0 0.66146 0.14993 0.66146 0.39688 0 0.48599-1.3337 0.54483-1.7992 0.07937zm1.1377-2.3283c0-0.19403-0.14883-0.40239-0.33073-0.46302-0.19674-0.06558-0.33073 0.122-0.33073 0.46302 0 0.34102 0.13399 0.5286 0.33073 0.46302 0.1819-0.06063 0.33073-0.26899 0.33073-0.46302zm1.9844 1.0583c0-1.2347-0.08819-1.5875-0.39688-1.5875-0.21828 0-0.39688-0.11906-0.39688-0.26458 0-0.14552 0.47625-0.26458 1.0583-0.26458s1.0583 0.11906 1.0583 0.26458c0 0.14552-0.11906 0.26458-0.26458 0.26458-0.14699 0-0.26458 0.70556-0.26458 1.5875 0 1.2347-0.08819 1.5875-0.39687 1.5875-0.30868 0-0.39688-0.35278-0.39688-1.5875zm-23.283-6.1648c0-0.48022 0.12293-0.99606 0.27318-1.1463 0.15025-0.15025 0.35861-1.2159 0.46302-2.368l0.18984-2.0948 1.9844-0.16424v2.3972c0 1.4218 0.10766 2.3972 0.26458 2.3972 0.14552 0 0.26458 0.41672 0.26458 0.92604 0 1.0328-0.63748 1.3061-0.92604 0.39688-0.11765-0.37069-0.40032-0.52917-0.94387-0.52917-0.59953 0-0.77592 0.1203-0.77592 0.52917 0 0.29398-0.17639 0.52917-0.39688 0.52917-0.2726 0-0.39688-0.2734-0.39688-0.87312zm2.1167-2.831c0-1.0583-0.11339-1.8521-0.26458-1.8521-0.14552 0-0.26458 0.46137-0.26458 1.0253 0 0.56389-0.07441 1.3973-0.16536 1.8521-0.13094 0.65467-0.07585 0.82682 0.26458 0.82682 0.35593 0 0.42995-0.31886 0.42995-1.8521zm2.1472 2.4787c-0.70508-0.49386-0.80014-2.7297-0.14395-3.3859 0.90602-0.90602 1.9655-0.31721 1.9655 1.0924 0 0.75494-0.08953 0.87312-0.66146 0.87312-0.41157 0-0.66146 0.14993-0.66146 0.39688 0 0.25036 0.25233 0.39688 0.68351 0.39688 0.79479 0 0.7501 0.51096-0.07126 0.8148-0.35238 0.13035-0.75298 0.06249-1.1109-0.18817zm0.81611-2.7962c-0.24694-0.24694-0.3175-0.17639-0.3175 0.3175s0.07056 0.56444 0.3175 0.3175c0.24694-0.24694 0.24694-0.38806 0-0.635zm4.2589 2.8241c-0.35333-0.25858-0.47045-0.6882-0.45637-1.674 0.02152-1.5062 0.4241-2.1555 1.3364-2.1555 0.76717 0 0.84472 0.67564 0.09989 0.87041-0.42045 0.10995-0.52917 0.36089-0.52917 1.2215 0 0.90671 0.08618 1.0831 0.52917 1.0831 0.29104 0 0.52917 0.16471 0.52917 0.36602 0 0.52003-0.94565 0.70081-1.5091 0.28849zm-2.1951-1.4483c0-1.2347-0.08819-1.5875-0.39688-1.5875-0.21828 0-0.39688-0.17859-0.39688-0.39688 0-0.29398 0.30868-0.39688 1.1906-0.39688s1.1906 0.10289 1.1906 0.39688c0 0.21828-0.17859 0.39688-0.39688 0.39688-0.30868 0-0.39688 0.35278-0.39688 1.5875 0 1.2347-0.08819 1.5875-0.39688 1.5875-0.30868 0-0.39688-0.35278-0.39688-1.5875zm4.2333-0.39688c0-1.5875 0.07937-1.9844 0.39688-1.9844 0.254 0 0.40069 0.26194 0.40747 0.7276l0.01059 0.7276 0.39473-0.7276c0.64176-1.183 1.3948-0.86835 0.77771 0.32492-0.20502 0.39646-0.27235 0.82786-0.14961 0.95864 0.12273 0.13079 0.30468 0.62475 0.40434 1.0977 0.15564 0.73863 0.10826 0.8599-0.33593 0.8599-0.36358 0-0.58-0.25531-0.72891-0.8599l-0.21179-0.8599-0.10263 0.8599c-0.06248 0.52348-0.25134 0.8599-0.48274 0.8599-0.29664 0-0.38011-0.43577-0.38011-1.9844zm2.7004 0.08731c0.05015-1.2238 0.19511-1.9359 0.40847-2.0064 0.22854-0.07557 0.33735 0.24488 0.35215 1.0372l0.02142 1.1465 0.49252-1.0583c0.7702-1.655 1.1844-1.3787 1.1844 0.79012 0 1.604-0.0663 1.8612-0.50145 1.945-0.44636 0.08596-0.48614-0.02991-0.36203-1.0547l0.13943-1.1513-0.50788 1.1245c-0.27933 0.61846-0.68718 1.1245-0.90634 1.1245-0.32506 0-0.38414-0.34942-0.32072-1.8971zm3.1204-0.10936c0-1.4904 0.08505-1.9767 0.33073-1.8908 0.19661 0.06875 0.31731 0.53371 0.29764 1.1465l-0.03309 1.0309 0.55018-1.1285c0.3026-0.62068 0.67468-1.0874 0.82684-1.0372 0.15216 0.05023 0.31163 0.94502 0.35439 1.9884 0.06423 1.5674 0.0067 1.8971-0.33073 1.8971-0.30325 0-0.40996-0.28966-0.41428-1.1245l-0.0058-1.1245-0.51042 1.1245c-0.75846 1.6709-1.0655 1.4168-1.0655-0.88194zm0.61653-2.4319c-0.72871-0.46355-0.48263-0.94181 0.50795-0.98724 1.0167-0.04663 1.269 0.28045 0.67469 0.87473-0.36178 0.36178-0.73497 0.39728-1.1826 0.11251zm-9.8769-4.0415c0-0.29827 0.1833-0.89676 0.40733-1.33 0.83951-1.6234 0.99933-4.7701 0.5498-10.825-0.5486-7.3893-0.64008-7.599-4.7166-10.814-1.5938-1.257-3.0402-2.3188-3.2142-2.3596-0.17407-0.04079-0.64089 0.58726-1.0374 1.3957l-0.72088 1.4698-0.85953-0.44006c-1.3001-0.66563-4.4796-4.0387-5.2086-5.5257-0.82965-1.6923-0.82329-3.395 0.01894-5.0747 0.81827-1.6319 1.7236-2.2612 3.4593-2.4044l1.4-0.11555 1.1906 2.4416c0.65484 1.3429 1.6239 3.1652 2.1535 4.0495 0.90306 1.5081 0.93781 1.6462 0.55947 2.2236-0.22186 0.33861-0.35749 0.65154-0.3014 0.69541 0.59923 0.46866 6.3111 3.5886 6.6891 3.6537 0.94869 0.16344 0.71333-0.52764-0.73094-2.1463-2.6723-2.9949-2.1966-5.3239 1.4667-7.1806 0.82614-0.41872 1.5852-0.89575 1.6867-1.0601 0.28179-0.45595 0.63884 0.26311 0.64361 1.2962 0.0029 0.63853 0.21128 1.0513 0.7662 1.5183 0.86692 0.72947 1.6191 2.1527 1.6191 3.0635 0 0.33894-0.41721 1.2922-0.92714 2.1183-0.89406 1.4485-0.99988 2.3448-0.27685 2.3448 0.17979 0 1.8175-1.2372 3.6393-2.7492 3.2779-2.7206 4.1434-3.3362 4.691-3.3362 0.47202 0 0.31454 0.75771-0.21657 1.0419-0.2742 0.14675-2.0075 1.8801-3.8517 3.8519l-3.3532 3.5851 0.16211 1.1183c0.20233 1.3957-0.11998 4.05-1.2121 9.9818-1.257 6.8276-1.2613 6.9738-0.24282 8.2411 0.46601 0.57989 0.78224 1.1194 0.70273 1.1989-0.07951 0.07951-0.7697-0.0054-1.5338-0.18869-1.3162-0.31576-1.409-0.30343-1.7663 0.23477-0.50064 0.754-1.6355 0.77185-1.6355 0.02572zm-6.4979-20.477c-0.41023-0.30462-0.45491-0.47768-0.22199-0.8599 0.45248-0.7425 1.3873-0.7616 1.6701-0.03411 0.17787 0.45757 0.13088 0.69816-0.1845 0.94466-0.53557 0.4186-0.6372 0.41452-1.2636-0.05065zm22.109-0.54365c-0.17471-0.52938-0.38098-0.89919-0.45837-0.8218-0.07739 0.07739-0.36318 0.02165-0.63509-0.12387-0.5602-0.29981-0.64869-1.0442-0.17987-1.513 0.24296-0.24296 0.17758-0.64489-0.28739-1.7667l-0.6019-1.4522 0.91078-1.5274c0.50093-0.84005 1.3065-2.2605 1.7903-3.1566l0.87947-1.6292 1.4737 0.64447c3.2073 1.4026 6.7553 4.3536 7.5654 6.2925 0.67333 1.6115-0.20486 3.2195-2.2354 4.093-1.2875 0.55385-4.6112 1.4094-6.8062 1.752-1.0791 0.16843-1.1032 0.15499-1.4154-0.79118zm-7.0912-12.357c-0.35102-0.35102-0.41845-1.5013-0.11501-1.9619 0.70937-1.0768 2.7079-0.40539 2.7079 0.90971 0 0.95533-0.44026 1.3697-1.4552 1.3697-0.45111 0-0.96308-0.14288-1.1377-0.3175z" fill="#4bb593"/>
<path d="m36.708 79.412c-0.33544-0.33544-0.17434-0.61736 0.35278-0.61736 0.63547 0 0.65562-0.3681 0.13758-2.5135-0.48038-1.9895-0.48033-1.9844-0.0215-1.9844 0.24964 0 0.44958 0.4326 0.58088 1.2568l0.20022 1.2568 0.24149-1.2568c0.15656-0.8148 0.37726-1.2568 0.62757-1.2568 0.2438 0 0.3353 0.17064 0.2483 0.46302-0.07578 0.25466-0.3252 1.2882-0.55428 2.2968-0.22907 1.0086-0.54686 1.9908-0.70619 2.1828-0.31259 0.37664-0.82322 0.45631-1.1069 0.17268zm14.376-2.4694c0-1.4552 0.0893-2.6475 0.19844-2.6494 0.10914-0.0021 0.44858-0.07077 0.75431-0.15284 0.77198-0.20724 1.4285 0.53423 1.4285 1.6133 0 1.3285-0.43002 2.2473-1.0518 2.2473-0.41885 0-0.53572 0.17315-0.53572 0.79375 0 0.52917-0.13229 0.79375-0.39687 0.79375-0.32632 0-0.39688-0.47037-0.39688-2.6458zm1.4906-1.7231c-0.08307-0.21649-0.27384-0.39361-0.42393-0.39361-0.31118 0-0.3766 2.1892-0.07445 2.4917 0.258 0.25827 0.69563-1.5841 0.49838-2.0981zm-12.868 0.9293c0-1.4699 0.08189-1.8521 0.39688-1.8521 0.26458 0 0.39688 0.26458 0.39688 0.79375 0 0.43656 0.11906 0.79375 0.26458 0.79375s0.26458-0.35719 0.26458-0.79375c0-0.52917 0.13229-0.79375 0.39688-0.79375 0.31498 0 0.39688 0.38218 0.39688 1.8521 0 1.4699-0.08189 1.8521-0.39688 1.8521-0.26458 0-0.39688-0.26458-0.39688-0.79375 0-0.43656-0.11906-0.79375-0.26458-0.79375s-0.26458 0.35719-0.26458 0.79375c0 0.52917-0.13229 0.79375-0.39688 0.79375-0.31498 0-0.39688-0.38218-0.39688-1.8521zm2.9104 0.02204c0-1.073 0.1131-1.8741 0.26458-1.8741 0.14552 0 0.27197 0.50602 0.281 1.1245l0.01642 1.1245 0.56488-1.1245c0.86249-1.7169 1.2946-1.4864 1.2003 0.64037-0.04953 1.1174-0.19957 1.8049-0.40896 1.8741-0.2328 0.07692-0.33511-0.2694-0.34551-1.1695l-0.01478-1.2788-0.47779 1.1784c-0.74053 1.8264-1.0801 1.6708-1.0801-0.49492zm2.9104-0.0053v-1.8688h0.93434c1.0277 0 1.4567 0.55828 0.99583 1.2962-0.19542 0.31292-0.16609 0.52941 0.10618 0.78375 0.57004 0.5325-0.14744 1.469-1.2065 1.5748l-0.82987 0.08293v-1.8688zm1.3229 0.49679c0-0.28244-0.11906-0.51354-0.26458-0.51354s-0.26458 0.30468-0.26458 0.67707c0 0.384 0.11452 0.60629 0.26458 0.51355 0.14552-0.08994 0.26458-0.39462 0.26458-0.67707zm0-1.4552c0-0.20968-0.11906-0.38124-0.26458-0.38124s-0.26458 0.24515-0.26458 0.54478 0.11906 0.4712 0.26458 0.38126c0.14552-0.08994 0.26458-0.33509 0.26458-0.54478zm1.5659 2.0829c-0.57198-1.4897 0.22909-3.4096 1.3339-3.1969 0.4843 0.09327 0.9458 1.3053 0.72054 1.8923-0.09329 0.24313-0.46287 0.42785-0.85599 0.42785-0.83529 0-0.75007 0.58221 0.11512 0.78645 0.89941 0.21232 0.7999 0.65839-0.16769 0.75168-0.73378 0.07075-0.90203-0.02638-1.1459-0.66146zm1.3445-1.957c0-0.6448-0.61827-0.55366-0.747 0.11012-0.05063 0.26108 0.08434 0.4411 0.33073 0.4411 0.24544 0 0.41628-0.22622 0.41628-0.55121zm4.3939 2.2494c-0.57689-1.5033 0.11477-3.6897 1.1064-3.4973 0.6284 0.12194 0.6722 0.65633 0.06678 0.81465-0.78292 0.20474-0.79197 2.2911-0.01082 2.4953 0.79272 0.2073 0.63729 0.60583-0.23628 0.60583-0.45391 0-0.83081-0.17034-0.92604-0.41852zm2.2207-1.4336c0-2.0076 0.44425-2.5599 0.58532-0.7276l0.08657 1.1245 0.48653-1.1245c0.7594-1.7551 1.2228-1.4794 1.2228 0.7276 0 1.4699-0.0819 1.8521-0.39688 1.8521-0.28759 0-0.40202-0.30964-0.41556-1.1245l-0.01869-1.1245-0.49963 1.1245c-0.72784 1.6381-1.0505 1.4146-1.0505-0.7276zm3.4396 0.26458c0-1.2614-0.08472-1.5875-0.41249-1.5875-0.22687 0-0.3389-0.11906-0.24897-0.26458 0.08994-0.14552 0.63274-0.26458 1.2062-0.26458 0.5735 0 1.0427 0.11906 1.0427 0.26458 0 0.14552-0.17859 0.26458-0.39688 0.26458-0.30868 0-0.39688 0.35278-0.39688 1.5875s-0.08819 1.5875-0.39688 1.5875c-0.30868 0-0.39688-0.35278-0.39688-1.5875zm2.1696 1.27c-0.52644-0.52644-0.39683-2.7037 0.19271-3.2372 0.84497-0.76469 1.6065-0.32541 1.6065 0.92671 0 0.93348-0.06804 1.0405-0.66146 1.0405-0.41158 0-0.66146 0.14993-0.66146 0.39688 0 0.24694 0.24988 0.39688 0.66146 0.39688 0.41158 0 0.66146 0.14993 0.66146 0.39688 0 0.48599-1.3337 0.54483-1.7992 0.07937zm1.1377-2.3283c0-0.19403-0.14883-0.40239-0.33073-0.46302-0.19674-0.06558-0.33073 0.122-0.33073 0.46302 0 0.34102 0.13399 0.5286 0.33073 0.46302 0.1819-0.06063 0.33073-0.26899 0.33073-0.46302zm1.9844 1.0583c0-1.2347-0.08819-1.5875-0.39688-1.5875-0.21828 0-0.39688-0.11906-0.39688-0.26458 0-0.14552 0.47625-0.26458 1.0583-0.26458s1.0583 0.11906 1.0583 0.26458c0 0.14552-0.11906 0.26458-0.26458 0.26458-0.14699 0-0.26458 0.70556-0.26458 1.5875 0 1.2347-0.08819 1.5875-0.39687 1.5875-0.30868 0-0.39688-0.35278-0.39688-1.5875zm-23.283-6.1648c0-0.48022 0.12293-0.99606 0.27318-1.1463 0.15025-0.15025 0.35861-1.2159 0.46302-2.368l0.18984-2.0948 1.9844-0.16424v2.3972c0 1.4218 0.10766 2.3972 0.26458 2.3972 0.14552 0 0.26458 0.41672 0.26458 0.92604 0 1.0328-0.63748 1.3061-0.92604 0.39688-0.11557-0.36413-0.40032-0.52917-0.91301-0.52917-0.52255 0-0.78639 0.15804-0.88344 0.52917-0.2217 0.84777-0.71709 0.61015-0.71709-0.34396zm2.1167-2.831c0-1.0583-0.11339-1.8521-0.26458-1.8521-0.14552 0-0.26458 0.46137-0.26458 1.0253 0 0.56389-0.07441 1.3973-0.16536 1.8521-0.13094 0.65467-0.07585 0.82682 0.26458 0.82682 0.35593 0 0.42995-0.31886 0.42995-1.8521zm2.1472 2.4787c-0.70508-0.49386-0.80014-2.7297-0.14395-3.3859 0.90602-0.90602 1.9655-0.31721 1.9655 1.0924 0 0.75494-0.08953 0.87312-0.66146 0.87312-0.41157 0-0.66146 0.14993-0.66146 0.39688 0 0.25036 0.25233 0.39688 0.68351 0.39688 0.79479 0 0.7501 0.51096-0.07126 0.8148-0.35238 0.13035-0.75298 0.06249-1.1109-0.18817zm0.81611-2.7962c-0.24694-0.24694-0.3175-0.17639-0.3175 0.3175s0.07056 0.56444 0.3175 0.3175c0.24694-0.24694 0.24694-0.38806 0-0.635zm4.2589 2.8241c-0.35333-0.25858-0.47045-0.6882-0.45637-1.674 0.02152-1.5062 0.4241-2.1555 1.3364-2.1555 0.76717 0 0.84472 0.67564 0.09989 0.87041-0.42045 0.10995-0.52917 0.36089-0.52917 1.2215 0 0.90671 0.08618 1.0831 0.52917 1.0831 0.29104 0 0.52917 0.16471 0.52917 0.36602 0 0.52003-0.94565 0.70081-1.5091 0.28849zm-2.1951-1.4483c0-1.2347-0.08819-1.5875-0.39688-1.5875-0.21828 0-0.39688-0.17859-0.39688-0.39688 0-0.29398 0.30868-0.39688 1.1906-0.39688s1.1906 0.10289 1.1906 0.39688c0 0.21828-0.17859 0.39688-0.39688 0.39688-0.30868 0-0.39688 0.35278-0.39688 1.5875 0 1.2347-0.08819 1.5875-0.39688 1.5875-0.30868 0-0.39688-0.35278-0.39688-1.5875zm4.2333-0.39688c0-1.5875 0.07937-1.9844 0.39688-1.9844 0.254 0 0.40069 0.26194 0.40747 0.7276l0.01059 0.7276 0.39473-0.7276c0.64176-1.183 1.3948-0.86835 0.77771 0.32492-0.20502 0.39646-0.27235 0.82786-0.14961 0.95864 0.12273 0.13079 0.30468 0.62475 0.40434 1.0977 0.15564 0.73863 0.10826 0.8599-0.33593 0.8599-0.36358 0-0.58-0.25531-0.72891-0.8599l-0.21179-0.8599-0.10263 0.8599c-0.06248 0.52348-0.25134 0.8599-0.48274 0.8599-0.29664 0-0.38011-0.43577-0.38011-1.9844zm2.7004 0.08731c0.05015-1.2238 0.19511-1.9359 0.40847-2.0064 0.22854-0.07557 0.33735 0.24488 0.35215 1.0372l0.02142 1.1465 0.49252-1.0583c0.7702-1.655 1.1844-1.3787 1.1844 0.79012 0 1.604-0.0663 1.8612-0.50145 1.945-0.44636 0.08596-0.48614-0.02991-0.36203-1.0547l0.13943-1.1513-0.50788 1.1245c-0.27933 0.61846-0.68718 1.1245-0.90634 1.1245-0.32506 0-0.38414-0.34942-0.32072-1.8971zm3.1204-0.10936c0-1.4904 0.08505-1.9767 0.33073-1.8908 0.19661 0.06875 0.31731 0.53371 0.29764 1.1465l-0.03309 1.0309 0.55018-1.1285c0.3026-0.62068 0.67468-1.0874 0.82684-1.0372 0.15216 0.05023 0.31163 0.94502 0.35439 1.9884 0.06423 1.5674 0.0067 1.8971-0.33073 1.8971-0.30325 0-0.40996-0.28966-0.41428-1.1245l-0.0058-1.1245-0.51042 1.1245c-0.75846 1.6709-1.0655 1.4168-1.0655-0.88194zm0.61653-2.4319c-0.72871-0.46355-0.48263-0.94181 0.50795-0.98724 1.0167-0.04663 1.269 0.28045 0.67469 0.87473-0.36178 0.36178-0.73497 0.39728-1.1826 0.11251zm-9.8769-4.0415c0-0.29827 0.17911-0.88866 0.39802-1.312 0.78335-1.5148 0.99406-4.5787 0.67308-9.7874-0.51332-8.3301-0.68185-8.7067-5.5752-12.459-3.9819-3.0537-5.0209-3.9304-5.0209-4.2368 0-0.56 1.0461-0.10376 4.6499 2.0279 4.9691 2.9393 5.9335 3.3385 5.9335 2.4561 0-0.11973-0.58144-0.85973-1.2921-1.6445-2.7654-3.0536-2.3315-5.4809 1.3081-7.3182 0.8431-0.4256 1.616-0.90825 1.7175-1.0726 0.29084-0.47059 0.63895 0.27635 0.64361 1.381 0.0031 0.72998 0.16264 1.0657 0.66211 1.3929 0.75981 0.49785 1.7232 2.2419 1.7232 3.1197 0 0.33035-0.41721 1.2766-0.92714 2.1027-0.87141 1.4118-1.0013 2.3448-0.3263 2.3448 0.35661 0 1.5954-0.93862 4.5607-3.4555 2.3553-1.9991 3.2712-2.6299 3.8191-2.6299 0.53103 0 0.28187 0.54543-0.60479 1.3239-0.48772 0.42822-2.1844 2.1694-3.7703 3.8692l-2.8835 3.0906-0.16402 3.3326c-0.09586 1.9477-0.51567 5.2018-1.0102 7.8305-1.3026 6.924-1.3085 7.0953-0.28825 8.3649 0.46978 0.58458 0.78909 1.1279 0.70958 1.2074-0.07951 0.07951-0.7697-0.0054-1.5338-0.18869-1.3162-0.31576-1.409-0.30343-1.7663 0.23477-0.50064 0.754-1.6355 0.77185-1.6355 0.02572zm-6.4979-20.477c-0.41122-0.30536-0.45511-0.47676-0.22017-0.8599 0.44546-0.72647 1.5379-0.62503 1.648 0.15302 0.04911 0.34734-0.06995 0.73248-0.26458 0.85584-0.47859 0.30336-0.5698 0.29168-1.1632-0.14897zm20.697-1.6471c-0.6341-0.6341 0.37103-1.8551 1.2496-1.518 0.46743 0.17937 0.80279 1.0344 0.55987 1.4274-0.18404 0.29778-1.5346 0.36538-1.8094 0.09056zm-5.5342-11.222c-0.53188-0.30979-0.62142-1.5667-0.14552-2.0426 0.17462-0.17462 0.68659-0.3175 1.1377-0.3175 1.0008 0 1.4552 0.41307 1.4552 1.3229 0 0.37835-0.14288 0.83079-0.3175 1.0054-0.38457 0.38457-1.4957 0.40112-2.1299 0.03172z" fill="#436a8c"/>
<path d="m51.253 79.405c-0.09306-0.09306-0.1692-1.2666-0.1692-2.6078 0-2.42 0.0053-2.4396 0.69226-2.5709 1.1318-0.21636 1.7895 0.65565 1.5904 2.1086-0.19911 1.4527-0.32412 1.6662-0.97534 1.6662-0.36809 0-0.51355 0.18294-0.51355 0.64584 0 0.6639-0.32466 1.058-0.62455 0.75808zm1.3029-2.5676c0.2189-0.87218 0.05046-1.8154-0.34762-1.9465-0.23549-0.07755-0.33073 0.27837-0.33073 1.236 0 1.3964 0.40082 1.8162 0.67835 0.71042zm-16.024 2.222c0-0.14552 0.23812-0.26458 0.52917-0.26458 0.59696 0 0.67841-0.59701 0.28878-2.1167-0.55406-2.161-0.57215-2.3812-0.19562-2.3812 0.24062 0 0.4406 0.48039 0.57826 1.3891l0.21043 1.3891 0.25774-1.3891c0.14176-0.76398 0.40043-1.3891 0.57483-1.3891 0.23446 0 0.19703 0.55324-0.14364 2.123-0.2534 1.1677-0.52816 2.2988-0.61058 2.5135-0.16622 0.43316-1.4894 0.54502-1.4894 0.12591zm3.175-2.9104c0-1.4699 0.08189-1.8521 0.39688-1.8521 0.26697 0 0.39688 0.26703 0.39688 0.8158 0 1.0123 0.62324 0.92146 0.74518-0.1086 0.17136-1.4475 0.57774-0.64219 0.57774 1.1449 0 1.0583-0.11339 1.8521-0.26458 1.8521-0.14552 0-0.26458-0.35719-0.26458-0.79375 0-0.52917-0.13229-0.79375-0.39688-0.79375-0.26458 0-0.39688 0.26458-0.39688 0.79375s-0.13229 0.79375-0.39688 0.79375c-0.31498 0-0.39688-0.38218-0.39688-1.8521zm2.9104 0c0-1.0583 0.11339-1.8521 0.26458-1.8521 0.14552 0 0.27422 0.56555 0.286 1.2568l0.02142 1.2568 0.54079-1.2568c0.29743-0.69122 0.64498-1.2568 0.77233-1.2568s0.23155 0.83344 0.23155 1.8521c0 1.1977-0.10538 1.8521-0.29825 1.8521-0.19846 0-0.25571-0.44264-0.17113-1.3229 0.06991-0.7276 0.08837-1.3229 0.04102-1.3229s-0.3422 0.59531-0.6552 1.3229c-0.31301 0.7276-0.6735 1.3229-0.8011 1.3229s-0.232-0.83344-0.232-1.8521zm2.9104 0v-1.8521h0.93434c1.0579 0 1.449 0.54912 0.88119 1.237-0.2815 0.34103-0.28797 0.46088-0.0296 0.54784 0.1819 0.06122 0.33073 0.39486 0.33073 0.74142 0 0.6737-0.67208 1.1779-1.5701 1.1779-0.5003 0-0.54656-0.15674-0.54656-1.8521zm1.3229 0.66146c0-0.3638-0.11906-0.66146-0.26458-0.66146s-0.26458 0.29766-0.26458 0.66146 0.11906 0.66146 0.26458 0.66146 0.26458-0.29766 0.26458-0.66146zm0-1.5875c0-0.2011-0.11906-0.43923-0.26458-0.52917-0.15065-0.09311-0.26458 0.13475-0.26458 0.52917s0.11393 0.62228 0.26458 0.52917c0.14552-0.08994 0.26458-0.32806 0.26458-0.52917zm1.7115 2.3812c-0.06819-0.21828-0.18468-0.58822-0.25885-0.82208-0.07417-0.23387-0.01373-0.87506 0.13432-1.4249 0.30118-1.1185 1.0881-1.5225 1.725-0.88558 0.7324 0.7324 0.38228 1.9419-0.56213 1.9419-0.3648 0-0.63315 0.15621-0.63315 0.36857 0 0.4136 0.71277 0.77105 1.0822 0.54272 0.13239-0.08182 0.24071 0.03685 0.24071 0.26372 0 0.55431-1.5554 0.56836-1.7281 0.01561zm1.1989-2.271c0-0.6448-0.61827-0.55366-0.747 0.11012-0.05063 0.26108 0.08434 0.4411 0.33073 0.4411 0.24544 0 0.41628-0.22622 0.41628-0.55121zm4.5508 2.3504c-0.17462-0.17462-0.3175-0.82947-0.3175-1.4552 0-1.2547 0.74592-2.2993 1.4492-2.0294 0.57832 0.22192 0.49672 0.62715-0.12629 0.62715-0.45237 0-0.52917 0.17639-0.52917 1.2154 0 0.99059 0.09733 1.2408 0.52619 1.353 0.2894 0.07568 0.46097 0.24313 0.38126 0.3721-0.20827 0.337-1.0119 0.28879-1.3837-0.083zm2.0638-1.5346c0-2.0624 0.51321-2.6123 0.55554-0.59531l0.02637 1.2568 0.55176-1.2568c0.30347-0.69122 0.64879-1.2568 0.76738-1.2568s0.21562 0.83344 0.21562 1.8521c0 1.2093-0.10462 1.8521-0.30144 1.8521-0.20623 0-0.25195-0.41785-0.14476-1.3229 0.08617-0.7276 0.10607-1.3229 0.04421-1.3229-0.06186 0-0.36857 0.59531-0.68158 1.3229s-0.6735 1.3229-0.8011 1.3229c-0.1276 0-0.232-0.83344-0.232-1.8521zm3.4396 0.26458c0-0.88194-0.11759-1.5875-0.26458-1.5875-0.14552 0-0.26458-0.11906-0.26458-0.26458 0-0.14552 0.47625-0.26458 1.0583-0.26458 0.58208 0 1.0583 0.11906 1.0583 0.26458 0 0.14552-0.17859 0.26458-0.39688 0.26458-0.30868 0-0.39688 0.35278-0.39688 1.5875s-0.08819 1.5875-0.39688 1.5875c-0.30868 0-0.39688-0.35278-0.39688-1.5875zm2.1345 1.0916c-0.80093-1.4966 0.15184-3.8255 1.3112-3.205 0.36656 0.19618 0.5231 0.55429 0.5231 1.1967 0 0.80843-0.08044 0.91673-0.68086 0.91673-0.50877 0-0.6565 0.11703-0.58447 0.46302 0.0635 0.30501 0.30347 0.44016 0.70319 0.39604 0.38816-0.04285 0.56757 0.05248 0.49792 0.26458-0.18976 0.57789-1.4559 0.55496-1.7701-0.03206zm1.3051-2.1499c0-0.29398-0.17639-0.52917-0.39688-0.52917-0.22048 0-0.39688 0.23518-0.39688 0.52917 0 0.29398 0.17639 0.52917 0.39688 0.52917 0.22049 0 0.39688-0.23518 0.39688-0.52917zm1.8521 1.0583c0-1.2347-0.08819-1.5875-0.39688-1.5875-0.21828 0-0.39688-0.11906-0.39688-0.26458 0-0.14552 0.47625-0.26458 1.0583-0.26458s1.0583 0.11906 1.0583 0.26458c0 0.14552-0.17859 0.26458-0.39688 0.26458-0.30868 0-0.39688 0.35278-0.39688 1.5875 0 0.88194-0.11759 1.5875-0.26458 1.5875s-0.26458-0.70556-0.26458-1.5875zm-23.283-6.1957c0-0.49719 0.13738-0.94978 0.3053-1.0058 0.18304-0.06101 0.35558-0.97045 0.43087-2.271l0.12558-2.1692h2.0487l0.0023 1.7859c0.0013 0.98227 0.07738 2.411 0.16914 3.175 0.11537 0.9605 0.07385 1.3891-0.13459 1.3891-0.16579 0-0.30144-0.23812-0.30144-0.52917 0-0.42639-0.17639-0.52917-0.90821-0.52917-0.67584 0-0.95118 0.13539-1.0762 0.52917-0.26634 0.83916-0.66146 0.61526-0.66146-0.37483zm2.1167-2.9325c0-1.1465-0.11171-1.9844-0.26458-1.9844-0.14552 0-0.26742 0.44648-0.2709 0.99219-0.0035 0.5457-0.11 1.4387-0.23672 1.9844-0.204 0.87849-0.17296 0.99219 0.2709 0.99219 0.44746 0 0.5013-0.21315 0.5013-1.9844zm1.8614 2.2664c-0.68369-1.2775-0.01873-3.457 1.0547-3.457 0.64714 0 1.1438 0.9238 0.9378 1.7444-0.11685 0.46558-0.34226 0.63682-0.8383 0.63682-0.82477 0-0.72978 0.62186 0.11396 0.74601 0.31602 0.0465 0.57459 0.25486 0.57459 0.46302 0 0.59382-1.5122 0.48444-1.8428-0.1333zm1.3136-2.1561c0-0.6448-0.61827-0.55366-0.747 0.11012-0.05063 0.26108 0.08434 0.4411 0.33073 0.4411 0.24544 0 0.41628-0.22622 0.41628-0.55121zm1.8521 1.0804c0-1.2347-0.08819-1.5875-0.39688-1.5875-0.21828 0-0.39688-0.11906-0.39688-0.26458s0.53578-0.26458 1.1906-0.26458 1.1906 0.11906 1.1906 0.26458-0.17859 0.26458-0.39688 0.26458c-0.30868 0-0.39688 0.35278-0.39688 1.5875 0 1.2347-0.08819 1.5875-0.39688 1.5875-0.30868 0-0.39688-0.35278-0.39688-1.5875zm2.0285 1.4111c-0.09701-0.09701-0.17639-0.80288-0.17639-1.5686 0-1.4695 0.49656-2.3203 1.267-2.1708 0.64016 0.12422 0.70508 0.74082 0.078 0.74082-0.47857 0-0.55122 0.16018-0.55122 1.2154 0 0.99059 0.09733 1.2408 0.52619 1.353 0.2894 0.07568 0.46097 0.24313 0.38126 0.3721-0.1692 0.27378-1.2673 0.31563-1.5248 0.05811zm2.2049-1.6757c0-1.4699 0.08189-1.8521 0.39688-1.8521 0.2515 0 0.40453 0.26652 0.41776 0.7276l0.02089 0.7276 0.26574-0.7276c0.14616-0.40018 0.44715-0.7276 0.66888-0.7276 0.2833 0 0.34402 0.13764 0.20429 0.46302-0.2186 0.50902-0.21463 0.78038 0.0329 2.249 0.13565 0.8048 0.08681 0.99219-0.25859 0.99219-0.27508 0-0.42582-0.22864-0.42582-0.64584 0-0.35521-0.11906-0.71943-0.26458-0.80937-0.15436-0.0954-0.26458 0.17364-0.26458 0.64584 0 0.54305-0.13059 0.80937-0.39688 0.80937-0.31498 0-0.39688-0.38218-0.39688-1.8521zm2.9104 0c0-1.0583 0.11339-1.8521 0.26458-1.8521 0.14552 0 0.27299 0.50602 0.28327 1.1245l0.01869 1.1245 0.49963-1.1245c0.72784-1.6381 1.0505-1.4146 1.0505 0.7276 0 1.0583-0.11339 1.8521-0.26458 1.8521-0.14552 0-0.27422-0.56555-0.286-1.2568l-0.02142-1.2568-0.54079 1.2568c-0.29743 0.69122-0.64498 1.2568-0.77233 1.2568-0.12735 0-0.23155-0.83344-0.23155-1.8521zm2.9104 0c0-1.9779 0.51325-2.6551 0.55146-0.7276l0.02229 1.1245 0.51688-1.1245c0.28429-0.61846 0.63144-1.1245 0.77146-1.1245s0.25457 0.83344 0.25457 1.8521c0 1.0583-0.11339 1.8521-0.26458 1.8521-0.14552 0-0.26847-0.56555-0.27321-1.2568l-0.0086-1.2568-0.55427 1.2568c-0.30485 0.69122-0.65815 1.2568-0.78512 1.2568s-0.23085-0.83344-0.23085-1.8521zm0.44097-2.8222c-0.09701-0.09701-0.17639-0.34972-0.17639-0.56156 0-0.31238 0.07501-0.32292 0.39688-0.0558 0.31692 0.26302 0.47812 0.26195 0.80014-0.0053 0.47817-0.39684 0.78452-0.1845 0.56376 0.39077-0.15617 0.40697-1.2493 0.56697-1.5844 0.2319zm-9.5712-3.5312c-0.0911-0.1474 0.08559-0.93948 0.39266-1.7602 0.30706-0.82069 0.62808-2.3972 0.71339-3.5034 0.21752-2.8208-0.3768-11.768-0.8872-13.356-0.56618-1.7617-1.6715-2.9018-6.1155-6.3076-5.1435-3.9419-4.7261-4.3012 1.0671-0.91854 2.3834 1.3916 4.6539 2.6107 5.0455 2.709 0.61436 0.1542 0.7121 0.09737 0.7121-0.41403 0-0.34327-0.4176-0.9841-0.99219-1.5226-1.5477-1.4504-1.9145-2.1541-1.9165-3.6764-0.0021-1.6728 0.72234-2.667 2.5841-3.5462 0.68783-0.3248 1.4515-0.76246 1.6969-0.97257 0.63157-0.54057 1.0577-0.1619 0.96952 0.86154-0.06144 0.71319 0.1297 1.0961 1.0404 2.084 1.5127 1.6411 1.5952 2.9434 0.30517 4.8183-0.85315 1.24-0.9778 1.8996-0.40083 2.121 0.55936 0.21465 1.1311-0.16794 4.4268-2.962 3.0054-2.548 4.0494-3.2514 4.362-2.9388 0.0918 0.09181-1.5756 1.968-3.7053 4.1692l-3.8722 4.0023v2.3686c0 2.3291-1.1874 10.316-2.0149 13.553-0.46056 1.8016-0.248 2.7528 0.87778 3.9278 0.3859 0.40279 0.63885 0.79514 0.5621 0.87189-0.07675 0.07674-0.77126-0.0063-1.5434-0.1845-1.3345-0.30805-1.423-0.29521-1.7917 0.2601-0.4036 0.60785-1.2293 0.78004-1.516 0.31614zm-6.5572-20.799c-0.10315-0.10315-0.18755-0.41374-0.18755-0.69019 0-0.39225 0.15981-0.48426 0.7276-0.41892 0.52331 0.06021 0.7276 0.2323 0.7276 0.61289 0 0.53159-0.88562 0.87827-1.2677 0.49623zm20.725-1.8064c-0.27691-0.33366-0.27691-0.48563 0-0.81929 0.53048-0.63918 1.4446-0.37997 1.4446 0.40964 0 0.78961-0.91414 1.0488-1.4446 0.40964zm-5.6802-11.144c-0.84282-0.84282-0.28448-2.2301 0.89755-2.2301 0.93055 0 1.5971 0.61133 1.5971 1.4648 0 1.0766-1.6708 1.5891-2.4946 0.76526z" fill="#04335e"/>
</g>
</g>
</svg>
