<svg width="90.072mm" height="81.188mm" version="1.1" viewBox="0 0 90.072 81.188" xmlns="http://www.w3.org/2000/svg" xmlns:osb="http://www.openswatchbook.org/uri/2009/osb">
<g transform="translate(.32141 -.024845)">
<path d="m26.054 0.024845a7.7163 7.8239 0 0 0-6.6823 3.9119l-18.66 32.77a7.7163 7.8239 0 0 0 0 7.8238l18.66 32.77a7.7163 7.8239 0 0 0 6.6823 3.9119h37.32a7.7163 7.8239 0 0 0 6.6828-3.9119l18.66-32.77a7.7163 7.8239 0 0 0 0-7.8238l-18.66-32.77a7.7163 7.8239 0 0 0-6.6828-3.9119zm2.1167 5.2917h32.496a6.719 6.702 0 0 1 5.8188 3.3512l16.249 28.071a6.719 6.702 0 0 1 0 6.7014l-16.249 28.072a6.719 6.702 0 0 1-5.8188 3.3507h-32.496a6.719 6.702 0 0 1-5.8188-3.3507l-16.248-28.072a6.719 6.702 0 0 1 0-6.7014l16.248-28.071a6.719 6.702 0 0 1 5.8188-3.3512z" fill="#6c97b6" stroke-width=".29123" style="paint-order:stroke fill markers"/>
</g>
</svg>
