<?xml version="1.0" encoding="UTF-8"?>
<!-- Created with Inkscape (http://www.inkscape.org/) -->
<svg width="392" height="400" version="1.1" viewBox="0 0 392 400" xmlns="http://www.w3.org/2000/svg" xmlns:cc="http://creativecommons.org/ns#" xmlns:dc="http://purl.org/dc/elements/1.1/" xmlns:rdf="http://www.w3.org/1999/02/22-rdf-syntax-ns#">
<metadata>
<rdf:RDF>
<cc:Work rdf:about="">
<dc:format>image/svg+xml</dc:format>
<dc:type rdf:resource="http://purl.org/dc/dcmitype/StillImage"/>
<dc:title/>
</cc:Work>
</rdf:RDF>
</metadata>
<path d="m34.621 193.34v-177.36h320.63v354.73h-320.63z" fill="#fdfdfd" stroke-width=".85168"/>
<path d="m184.53 368.92c-3.0817-0.85477-18.691-8.8996-35.5-18.297l-30-16.771-26.5-0.50133c-25.361-0.47978-26.673-0.6006-30.517-2.8108-7.9209-4.5536-10.483-10.819-10.483-25.637 0-9.9003-4e-3 -9.9162-3.465-13.757-4.1658-4.6233-8.3589-12.64-10.144-19.394-0.96027-3.6333-1.6091-23.787-2.441-75.82-1.0264-64.199-0.98165-71.464 0.47486-77.164 2.0372-7.973 5.7974-14.913 11.276-20.812l4.2994-4.6291 0.0056-11.587c0.0031-6.3731 0.50487-13.391 1.1151-15.595 1.4485-5.2315 8.165-11.966 13.383-13.418 2.4461-0.68088 13.936-1.1147 29.615-1.1181l25.618-0.0056 25.382-15.231c13.96-8.3769 27.632-16.093 30.382-17.148s8.375-2.1523 12.5-2.4401c12.532-0.87438 17.053 0.85272 49.206 18.797l28.706 16.021 23.294 0.0056c13.977 0.0033 24.893 0.45059 27.291 1.1181 5.2176 1.4523 11.934 8.1868 13.383 13.418 0.61025 2.204 1.1121 7.9886 1.1151 12.854l6e-3 8.8472 5.3631 4.9146c5.763 5.2811 11.585 15.242 13.457 23.025 1.2672 5.2666 3.7142 141.31 2.6676 148.31-1.6506 11.036-9.203 23.924-17.309 29.537l-4.1789 2.8937-6e-3 9.1383c-3e-3 5.026-0.50487 10.942-1.1151 13.146-1.4485 5.2315-8.165 11.966-13.383 13.418-2.352 0.65468-12.816 1.1148-25.428 1.1181l-21.431 6e-3 -27.069 16.231c-14.888 8.9272-29.319 17.102-32.069 18.165-6.7399 2.607-20.252 3.1834-27.5 1.173zm134.62-42.21c1.8815-0.89517 4.4245-3.0384 5.6511-4.7626l2.2303-3.135 0.26006-125.33c0.25033-120.64 0.19026-125.46-1.6041-128.84-1.0253-1.9301-3.6173-4.5171-5.7601-5.7488l-3.8959-2.2395h-248l-3.8959 2.2395c-2.1427 1.2317-4.7348 3.8187-5.7601 5.7488-1.7944 3.3779-1.8544 8.2022-1.6041 128.84l0.26006 125.33 2.2182 3.118c4.8388 6.8016-4.3518 6.3592 132.63 6.3845 112.23 0.0206 124.17-0.12991 127.27-1.6048z" fill="#52b695" stroke-width="1.0013"/>
</svg>
